<?xml version="1.0" encoding="UTF-8" standalone="no"?>
<!-- Created with Inkscape (http://www.inkscape.org/) -->

<svg
   width="16"
   height="16"
   viewBox="0 0 4.23328 4.23328"
   version="1.1"
   id="svg5"
   inkscape:version="1.1.2 (0a00cf5339, 2022-02-04)"
   sodipodi:docname="smartlock-white.svg"
   xmlns:inkscape="http://www.inkscape.org/namespaces/inkscape"
   xmlns:sodipodi="http://sodipodi.sourceforge.net/DTD/sodipodi-0.dtd"
   xmlns="http://www.w3.org/2000/svg"
   xmlns:svg="http://www.w3.org/2000/svg">
  <sodipodi:namedview
     id="namedview7"
     pagecolor="#505050"
     bordercolor="#eeeeee"
     borderopacity="1"
     inkscape:pageshadow="0"
     inkscape:pageopacity="0"
     inkscape:pagecheckerboard="true"
     inkscape:document-units="px"
     showgrid="false"
     inkscape:zoom="44.300336"
     inkscape:cx="14.277544"
     inkscape:cy="9.2888686"
     inkscape:window-width="2560"
     inkscape:window-height="1411"
     inkscape:window-x="0"
     inkscape:window-y="29"
     inkscape:window-maximized="1"
     inkscape:current-layer="layer1"
     units="px"
     height="640px"
     scale-x="0.26458"
     width="16px" />
  <defs
     id="defs2" />
  <g
     inkscape:label="Layer 1"
     inkscape:groupmode="layer"
     id="layer1">
    <g
       id="g1215"
       transform="matrix(0.02796285,0,0,0.02396966,-0.44401138,0.02330477)">
      <path
         style="fill:#ffffff;stroke-width:1.44468"
         d="m 197.92175,663.24867 -44.78522,-0.86093 -8.08463,-3.97037 c -9.30784,-4.57109 -22.49972,-17.66116 -27.31943,-27.10857 -5.03065,-9.86088 -6.05593,-32.69553 -5.52224,-122.98979 0.4531,-76.66047 0.60282,-80.53089 3.22725,-83.43052 3.59129,-3.96786 11.41258,-4.04518 15.30645,-0.15131 2.70405,2.70406 2.90124,4.95096 3.07458,35.03359 0.10186,17.67933 0.58945,61.12337 1.08351,96.5423 l 0.8983,64.39809 3.77058,5.6936 c 2.07382,3.13148 6.56884,7.6329 9.98893,10.00317 l 6.21835,4.30955 185.53164,0.38265 c 119.17273,0.24579 187.42392,-0.12901 190.8222,-1.04787 7.02304,-1.89895 15.45838,-9.04474 19.41813,-16.44957 l 3.20861,-6.00016 0.43877,-138.68969 0.43878,-138.68969 -4.78198,-7.94577 c -2.99562,-4.97755 -7.403,-9.69969 -11.79835,-12.64098 l -7.01637,-4.69523 H 345.69577 c -208.03311,0 -190.60245,-0.89452 -201.85599,10.35902 -7.30854,7.30855 -8.33989,10.93853 -9.53697,33.56674 -0.90992,17.19993 -1.26116,18.91864 -4.53538,22.19288 -2.84617,2.84616 -4.4562,3.36766 -8.1292,2.63305 -8.41667,-1.68333 -8.96321,-3.23309 -8.85337,-25.10424 0.11453,-22.80421 1.36183,-28.31494 9.12871,-40.33181 8.9468,-13.84243 20.16115,-20.70675 42.32155,-25.90502 l 5.31984,-1.24791 0.66715,-62.12142 c 0.51594,-48.04081 1.18297,-64.91956 2.94286,-74.46635 10.03641,-54.44413 44.93172,-100.533259 94.04745,-124.216261 26.27928,-12.671551 46.89855,-17.269794 77.51671,-17.286777 31.04177,-0.01722 53.45637,5.099848 79.28571,18.10027 47.73671,24.026846 80.49281,67.02368 91.88713,120.614338 1.82532,8.58498 2.44731,24.02296 3.03349,75.29134 l 0.73738,64.49205 8.87486,1.67121 c 18.50928,3.48547 32.59807,13.35609 42.02582,29.44334 6.23557,10.64019 6.78662,25.49008 6.25941,168.682 -0.43459,118.03772 -0.68985,129.72739 -2.95844,135.47883 -5.99018,15.18659 -22.16434,30.63765 -36.16755,34.55059 -6.29407,1.75877 -30.74624,2.15246 -151.2539,2.43524 -79.06034,0.18552 -163.89943,-0.0501 -188.53129,-0.52361 z m 42.96148,-435.34972 c 0.57991,-61.89269 0.70314,-64.22615 3.87167,-73.31773 11.96961,-34.34479 36.96229,-58.596483 70.237,-68.1546 9.21162,-2.646027 15.10868,-3.309328 29.5653,-3.325504 21.5782,-0.02414 29.41143,1.686184 47.60424,10.394027 24.10209,11.536267 43.95371,34.981547 52.94616,62.530757 2.29873,7.04238 2.65399,15.21397 3.12468,71.87305 l 0.53107,63.92727 h 24.46519 24.46519 l -0.0939,-32.86656 C 497.44636,205.18363 495.32018,156.42413 492.72243,147.10545 478.65456,96.641054 442.10186,57.720529 394.01848,42.007608 376.01978,36.125909 359.3509,34.12496 336.61144,35.116409 296.78317,36.852937 266.55409,49.679771 238.24926,76.853543 218.80914,95.516835 206.12932,116.57597 197.53797,144.46843 l -3.78239,12.27981 -0.55737,67.53899 -0.55737,67.53899 h 23.82171 23.8217 z m 185.99236,7.94576 c -0.0157,-30.78984 -0.66869,-60.53227 -1.451,-66.09431 -3.13962,-22.32185 -21.10568,-46.63301 -41.86091,-56.64496 -17.45423,-8.41962 -38.02513,-10.91227 -57.06503,-6.91479 -28.188,5.91814 -49.9429,24.78534 -59.79148,51.85486 l -3.73292,10.26021 -0.49102,61.76025 -0.49101,61.76025 h 82.45599 82.45599 l -0.0286,-55.98151 z"
         id="path662"
         transform="scale(0.26458)" />
      <path
         style="fill:#ffffff;stroke-width:1.44468"
         d="m 187.40807,438.37976 c -4.42567,-3.09986 -4.17633,-9.92703 0.61505,-16.84099 5.64683,-8.14837 34.37058,-31.95709 44.22175,-36.65479 6.33241,-3.01971 11.66653,-1.40188 14.27843,4.33062 2.81541,6.17916 0.39933,10.39834 -10.69486,18.67639 -5.75173,4.29171 -16.80932,13.4134 -24.57242,20.27041 -14.66661,12.95477 -17.9392,14.35701 -23.84795,10.21836 z"
         id="path701"
         transform="scale(0.26458)" />
      <path
         style="fill:#ffffff;stroke-width:1.44468"
         d="m 478.10133,427.98772 c -31.58165,-28.7312 -58.71534,-43.12879 -96.3671,-51.134 -11.75848,-2.5 -20.06567,-3.1782 -40.58805,-3.31365 -25.50169,-0.16831 -25.83696,-0.21146 -28.65167,-3.68747 -3.07169,-3.79338 -2.72441,-10.63068 0.71462,-14.06971 5.67249,-5.6725 44.71585,-5.96031 71.22722,-0.52506 40.71577,8.34737 76.9666,27.17187 107.14052,55.63642 11.72942,11.06493 15.50431,17.54156 13.41974,23.0244 -1.53275,4.03141 -5.5473,6.71006 -10.05655,6.71006 -1.67876,0 -8.9143,-5.43179 -16.83873,-12.64099 z"
         id="path814"
         transform="scale(0.26458)" />
      <path
         style="fill:#ffffff;stroke-width:1.44468"
         d="m 264.4175,383.73529 c -7.85621,-7.85621 -3.32639,-16.0698 11.24982,-20.39847 6.51985,-1.93618 7.63852,-1.92797 10.70092,0.0786 8.36719,5.48238 6.95299,15.11139 -2.84309,19.35807 -11.22633,4.8667 -15.01218,5.05726 -19.10765,0.9618 z"
         id="path890"
         transform="scale(0.26458)" />
      <path
         style="fill:#ffffff;stroke-width:1.44468"
         d="m 232.2026,477.22358 c -1.00994,-0.40635 -2.79553,-2.59386 -3.96799,-4.86115 -2.98245,-5.76742 -1.14201,-9.64889 9.49515,-20.02519 18.46118,-18.00843 45.60365,-33.20777 71.75434,-40.18124 11.99588,-3.19888 17.28297,-3.78193 35.0731,-3.86775 12.0295,-0.058 24.63831,0.69016 29.61603,1.7574 14.34188,3.07493 32.3482,9.09564 36.1527,12.08827 6.83616,5.37732 3.07448,18.49479 -5.30374,18.49479 -1.70562,0 -9.34439,-2.10279 -16.97504,-4.67286 -13.64975,-4.59735 -14.30575,-4.67297 -40.60058,-4.68041 -29.69023,-0.008 -36.85394,1.28234 -55.89835,10.07163 -13.9012,6.41562 -23.67667,13.0681 -38.18627,25.98683 -11.70448,10.42117 -15.46728,12.17987 -21.15935,9.88968 z"
         id="path929"
         transform="scale(0.26458)" />
      <path
         style="fill:#ffffff;stroke-width:1.44468"
         d="m 437.90977,465.58124 c -12.6783,-11.50521 -13.89493,-13.0668 -13.89493,-17.83465 0,-6.35066 3.55735,-10.00725 9.73564,-10.00725 5.09464,0 14.47289,6.8583 25.29795,18.50036 7.71947,8.30208 8.929,14.10531 3.97288,19.06143 -5.63744,5.63744 -10.08564,3.91569 -25.11154,-9.71989 z"
         id="path968"
         transform="scale(0.26458)" />
      <path
         style="fill:#ffffff;stroke-width:1.44468"
         d="m 272.97966,512.20625 c -5.83321,-5.83322 -4.72895,-10.33104 4.81502,-19.61228 9.77411,-9.50503 24.62473,-18.63491 37.86884,-23.28105 13.7663,-4.82934 42.3082,-4.846 57.78737,-0.0337 20.61222,6.40805 46.22989,25.74733 46.22989,34.89985 0,5.14676 -5.50978,11.57327 -9.92235,11.57327 -1.55665,0 -5.97443,-2.61298 -9.81729,-5.80662 -11.80162,-9.80783 -23.75955,-17.24243 -31.43964,-19.54696 -10.37228,-3.11235 -27.50127,-4.14363 -37.6688,-2.2679 -11.29378,2.0835 -27.50777,10.12342 -36.32622,18.01282 -11.91323,10.65814 -15.8286,11.76083 -21.52682,6.06262 z"
         id="path1007"
         transform="scale(0.26458)" />
      <path
         style="fill:#ffffff;stroke-width:1.44468"
         d="m 332.08193,603.83569 c -7.25702,-2.24155 -18.16961,-10.31557 -22.38919,-16.56536 -5.0288,-7.44835 -7.03138,-14.31643 -7.03138,-24.11489 0,-16.02225 7.56815,-28.69014 21.87425,-36.61404 6.88005,-3.81074 9.10862,-4.28803 20.02159,-4.28803 10.75277,0 13.10853,0.48718 18.94393,3.91766 29.81925,17.52999 29.26505,59.60505 -0.98409,74.7122 -7.63509,3.81315 -22.86531,5.29061 -30.43511,2.95246 z m 20.4358,-22.26333 c 6.84407,-2.85964 10.80824,-9.83652 10.81497,-19.03418 0.011,-15.11424 -14.26028,-23.67171 -28.33724,-16.99175 -14.5059,6.8835 -14.84442,27.78387 -0.57359,35.41443 6.04001,3.22957 11.3967,3.41059 18.09586,0.6115 z"
         id="path1046"
         transform="scale(0.26458)" />
    </g>
  </g>
</svg>
