<?xml version="1.0" encoding="UTF-8" standalone="no"?>
<!-- Created with Inkscape (http://www.inkscape.org/) -->

<svg
   width="64"
   height="64"
   viewBox="0 0 16.93312 16.93312"
   version="1.1"
   id="svg5"
   inkscape:version="1.1.2 (0a00cf5339, 2022-02-04)"
   sodipodi:docname="smartlock-black.svg"
   xmlns:inkscape="http://www.inkscape.org/namespaces/inkscape"
   xmlns:sodipodi="http://sodipodi.sourceforge.net/DTD/sodipodi-0.dtd"
   xmlns="http://www.w3.org/2000/svg"
   xmlns:svg="http://www.w3.org/2000/svg">
  <sodipodi:namedview
     id="namedview7"
     pagecolor="#505050"
     bordercolor="#eeeeee"
     borderopacity="1"
     inkscape:pageshadow="0"
     inkscape:pageopacity="0"
     inkscape:pagecheckerboard="true"
     inkscape:document-units="px"
     showgrid="false"
     inkscape:zoom="11.075084"
     inkscape:cx="70.654091"
     inkscape:cy="47.493996"
     inkscape:window-width="2560"
     inkscape:window-height="1414"
     inkscape:window-x="0"
     inkscape:window-y="26"
     inkscape:window-maximized="1"
     inkscape:current-layer="layer1"
     units="px"
     height="640px"
     scale-x="0.26458" />
  <defs
     id="defs2" />
  <g
     inkscape:label="Layer 1"
     inkscape:groupmode="layer"
     id="layer1">
    <g
       id="g1215"
       transform="matrix(0.11096932,0,0,0.09027551,-1.5892438,0.28330734)">
      <path
         style="fill:#ffffff;stroke-width:1.44468"
         d="m 197.92175,663.24867 -44.78522,-0.86093 -8.08463,-3.97037 c -9.30784,-4.57109 -22.49972,-17.66116 -27.31943,-27.10857 -5.03065,-9.86088 -6.05593,-32.69553 -5.52224,-122.98979 0.4531,-76.66047 0.60282,-80.53089 3.22725,-83.43052 3.59129,-3.96786 11.41258,-4.04518 15.30645,-0.15131 2.70405,2.70406 2.90124,4.95096 3.07458,35.03359 0.10186,17.67933 0.58945,61.12337 1.08351,96.5423 l 0.8983,64.39809 3.77058,5.6936 c 2.07382,3.13148 6.56884,7.6329 9.98893,10.00317 l 6.21835,4.30955 185.53164,0.38265 c 119.17273,0.24579 187.42392,-0.12901 190.8222,-1.04787 7.02304,-1.89895 15.45838,-9.04474 19.41813,-16.44957 l 3.20861,-6.00016 0.43877,-138.68969 0.43878,-138.68969 -4.78198,-7.94577 c -2.99562,-4.97755 -7.403,-9.69969 -11.79835,-12.64098 l -7.01637,-4.69523 H 345.69577 c -208.03311,0 -190.60245,-0.89452 -201.85599,10.35902 -7.30854,7.30855 -8.33989,10.93853 -9.53697,33.56674 -0.90992,17.19993 -1.26116,18.91864 -4.53538,22.19288 -2.84617,2.84616 -4.4562,3.36766 -8.1292,2.63305 -8.41667,-1.68333 -8.96321,-3.23309 -8.85337,-25.10424 0.11453,-22.80421 1.36183,-28.31494 9.12871,-40.33181 8.9468,-13.84243 20.16115,-20.70675 42.32155,-25.90502 l 5.31984,-1.24791 0.66715,-62.12142 c 0.51594,-48.04081 1.18297,-64.91956 2.94286,-74.46635 10.03641,-54.44413 44.93172,-100.533259 94.04745,-124.216261 26.27928,-12.671551 46.89855,-17.269794 77.51671,-17.286777 31.04177,-0.01722 53.45637,5.099848 79.28571,18.10027 47.73671,24.026846 80.49281,67.02368 91.88713,120.614338 1.82532,8.58498 2.44731,24.02296 3.03349,75.29134 l 0.73738,64.49205 8.87486,1.67121 c 18.50928,3.48547 32.59807,13.35609 42.02582,29.44334 6.23557,10.64019 6.78662,25.49008 6.25941,168.682 -0.43459,118.03772 -0.68985,129.72739 -2.95844,135.47883 -5.99018,15.18659 -22.16434,30.63765 -36.16755,34.55059 -6.29407,1.75877 -30.74624,2.15246 -151.2539,2.43524 -79.06034,0.18552 -163.89943,-0.0501 -188.53129,-0.52361 z m 42.96148,-435.34972 c 0.57991,-61.89269 0.70314,-64.22615 3.87167,-73.31773 11.96961,-34.34479 36.96229,-58.596483 70.237,-68.1546 9.21162,-2.646027 15.10868,-3.309328 29.5653,-3.325504 21.5782,-0.02414 29.41143,1.686184 47.60424,10.394027 24.10209,11.536267 43.95371,34.981547 52.94616,62.530757 2.29873,7.04238 2.65399,15.21397 3.12468,71.87305 l 0.53107,63.92727 h 24.46519 24.46519 l -0.0939,-32.86656 C 497.44636,205.18363 495.32018,156.42413 492.72243,147.10545 478.65456,96.641054 442.10186,57.720529 394.01848,42.007608 376.01978,36.125909 359.3509,34.12496 336.61144,35.116409 296.78317,36.852937 266.55409,49.679771 238.24926,76.853543 218.80914,95.516835 206.12932,116.57597 197.53797,144.46843 l -3.78239,12.27981 -0.55737,67.53899 -0.55737,67.53899 h 23.82171 23.8217 z m 185.99236,7.94576 c -0.0157,-30.78984 -0.66869,-60.53227 -1.451,-66.09431 -3.13962,-22.32185 -21.10568,-46.63301 -41.86091,-56.64496 -17.45423,-8.41962 -38.02513,-10.91227 -57.06503,-6.91479 -28.188,5.91814 -49.9429,24.78534 -59.79148,51.85486 l -3.73292,10.26021 -0.49102,61.76025 -0.49101,61.76025 h 82.45599 82.45599 l -0.0286,-55.98151 z"
         id="path662"
         transform="scale(0.26458)" />
      <path
         style="fill:#ffffff;stroke-width:1.44468"
         d="m 187.40807,438.37976 c -4.42567,-3.09986 -4.17633,-9.92703 0.61505,-16.84099 5.64683,-8.14837 34.37058,-31.95709 44.22175,-36.65479 6.33241,-3.01971 11.66653,-1.40188 14.27843,4.33062 2.81541,6.17916 0.39933,10.39834 -10.69486,18.67639 -5.75173,4.29171 -16.80932,13.4134 -24.57242,20.27041 -14.66661,12.95477 -17.9392,14.35701 -23.84795,10.21836 z"
         id="path701"
         transform="scale(0.26458)" />
      <path
         style="fill:#ffffff;stroke-width:1.44468"
         d="m 478.10133,427.98772 c -31.58165,-28.7312 -58.71534,-43.12879 -96.3671,-51.134 -11.75848,-2.5 -20.06567,-3.1782 -40.58805,-3.31365 -25.50169,-0.16831 -25.83696,-0.21146 -28.65167,-3.68747 -3.07169,-3.79338 -2.72441,-10.63068 0.71462,-14.06971 5.67249,-5.6725 44.71585,-5.96031 71.22722,-0.52506 40.71577,8.34737 76.9666,27.17187 107.14052,55.63642 11.72942,11.06493 15.50431,17.54156 13.41974,23.0244 -1.53275,4.03141 -5.5473,6.71006 -10.05655,6.71006 -1.67876,0 -8.9143,-5.43179 -16.83873,-12.64099 z"
         id="path814"
         transform="scale(0.26458)" />
      <path
         style="fill:#ffffff;stroke-width:1.44468"
         d="m 264.4175,383.73529 c -7.85621,-7.85621 -3.32639,-16.0698 11.24982,-20.39847 6.51985,-1.93618 7.63852,-1.92797 10.70092,0.0786 8.36719,5.48238 6.95299,15.11139 -2.84309,19.35807 -11.22633,4.8667 -15.01218,5.05726 -19.10765,0.9618 z"
         id="path890"
         transform="scale(0.26458)" />
      <path
         style="fill:#ffffff;stroke-width:1.44468"
         d="m 232.2026,477.22358 c -1.00994,-0.40635 -2.79553,-2.59386 -3.96799,-4.86115 -2.98245,-5.76742 -1.14201,-9.64889 9.49515,-20.02519 18.46118,-18.00843 45.60365,-33.20777 71.75434,-40.18124 11.99588,-3.19888 17.28297,-3.78193 35.0731,-3.86775 12.0295,-0.058 24.63831,0.69016 29.61603,1.7574 14.34188,3.07493 32.3482,9.09564 36.1527,12.08827 6.83616,5.37732 3.07448,18.49479 -5.30374,18.49479 -1.70562,0 -9.34439,-2.10279 -16.97504,-4.67286 -13.64975,-4.59735 -14.30575,-4.67297 -40.60058,-4.68041 -29.69023,-0.008 -36.85394,1.28234 -55.89835,10.07163 -13.9012,6.41562 -23.67667,13.0681 -38.18627,25.98683 -11.70448,10.42117 -15.46728,12.17987 -21.15935,9.88968 z"
         id="path929"
         transform="scale(0.26458)" />
      <path
         style="fill:#ffffff;stroke-width:1.44468"
         d="m 437.90977,465.58124 c -12.6783,-11.50521 -13.89493,-13.0668 -13.89493,-17.83465 0,-6.35066 3.55735,-10.00725 9.73564,-10.00725 5.09464,0 14.47289,6.8583 25.29795,18.50036 7.71947,8.30208 8.929,14.10531 3.97288,19.06143 -5.63744,5.63744 -10.08564,3.91569 -25.11154,-9.71989 z"
         id="path968"
         transform="scale(0.26458)" />
      <path
         style="fill:#ffffff;stroke-width:1.44468"
         d="m 272.97966,512.20625 c -5.83321,-5.83322 -4.72895,-10.33104 4.81502,-19.61228 9.77411,-9.50503 24.62473,-18.63491 37.86884,-23.28105 13.7663,-4.82934 42.3082,-4.846 57.78737,-0.0337 20.61222,6.40805 46.22989,25.74733 46.22989,34.89985 0,5.14676 -5.50978,11.57327 -9.92235,11.57327 -1.55665,0 -5.97443,-2.61298 -9.81729,-5.80662 -11.80162,-9.80783 -23.75955,-17.24243 -31.43964,-19.54696 -10.37228,-3.11235 -27.50127,-4.14363 -37.6688,-2.2679 -11.29378,2.0835 -27.50777,10.12342 -36.32622,18.01282 -11.91323,10.65814 -15.8286,11.76083 -21.52682,6.06262 z"
         id="path1007"
         transform="scale(0.26458)" />
      <path
         style="fill:#ffffff;stroke-width:1.44468"
         d="m 332.08193,603.83569 c -7.25702,-2.24155 -18.16961,-10.31557 -22.38919,-16.56536 -5.0288,-7.44835 -7.03138,-14.31643 -7.03138,-24.11489 0,-16.02225 7.56815,-28.69014 21.87425,-36.61404 6.88005,-3.81074 9.10862,-4.28803 20.02159,-4.28803 10.75277,0 13.10853,0.48718 18.94393,3.91766 29.81925,17.52999 29.26505,59.60505 -0.98409,74.7122 -7.63509,3.81315 -22.86531,5.29061 -30.43511,2.95246 z m 20.4358,-22.26333 c 6.84407,-2.85964 10.80824,-9.83652 10.81497,-19.03418 0.011,-15.11424 -14.26028,-23.67171 -28.33724,-16.99175 -14.5059,6.8835 -14.84442,27.78387 -0.57359,35.41443 6.04001,3.22957 11.3967,3.41059 18.09586,0.6115 z"
         id="path1046"
         transform="scale(0.26458)" />
    </g>
    <path
       style="fill:#000000;stroke-width:0.0902928"
       d="m 13.453622,60.860094 -2.528197,-0.04791 -0.647135,-0.28154 C 9.3280317,60.117224 8.4689685,59.509906 7.7084547,58.713885 6.5175694,57.4674 6.5006217,57.319973 6.5120728,48.306631 c 0.0098,-7.7149 0.04105,-8.502626 0.3495315,-8.811107 0.4272145,-0.427215 1.424194,-0.360489 1.7365484,0.116225 0.1386498,0.211606 0.1614654,0.686326 0.2157154,4.488331 0.033366,2.338434 0.09089,6.231719 0.1278296,8.651747 l 0.067163,4.400048 0.4731508,0.520908 c 0.2602329,0.286498 0.7640845,0.69418 1.1196695,0.90596 l 0.646519,0.385055 20.96712,-0.02388 20.96712,-0.02388 0.507549,-0.249254 c 0.614396,-0.301725 1.250385,-0.847038 1.628006,-1.395892 l 0.279777,-0.406641 0.04599,-12.563168 0.04599,-12.563168 -0.423269,-0.56056 c -0.482522,-0.63903 -0.872715,-0.97086 -1.674567,-1.424093 l -0.562268,-0.317813 -17.756428,0.0034 c -18.605738,0.0036 -23.325277,0.06373 -24.243228,0.309101 -0.869299,0.232371 -1.7911848,1.140765 -1.9873314,1.958251 -0.03156,0.131535 -0.1166032,0.912656 -0.1889843,1.735824 -0.072381,0.82317 -0.1739631,1.575824 -0.2257378,1.672565 -0.1692711,0.31629 -0.5555356,0.551074 -0.906615,0.551074 -0.4660208,0 -0.8882308,-0.163623 -1.0147106,-0.393241 C 6.5574301,35.001558 6.5049637,32.861039 6.6255503,31.96501 6.7590447,30.973069 7.1174732,30.30483 7.9878719,29.425152 8.950831,28.451928 9.8893443,28.008794 11.873499,27.590491 l 0.948074,-0.199874 0.100211,-5.185951 c 0.05512,-2.852274 0.128917,-5.510675 0.164,-5.907558 0.358972,-4.060847 3.225132,-8.2648827 7.397074,-10.8499014 2.167801,-1.3432133 5.159391,-2.4538502 7.733632,-2.871136 1.951332,-0.3163119 4.755807,-0.3678753 7.042836,-0.1294906 5.112646,0.5329084 10.179212,3.152467 13.085482,6.7655672 1.593359,1.9808768 2.737162,4.4460958 2.98381,6.4309498 0.09172,0.738066 0.267793,7.45753 0.271773,10.371405 l 0.0019,1.409723 0.699769,0.108252 c 1.058409,0.163732 1.968729,0.430834 2.678558,0.785927 0.782724,0.391559 1.129939,0.647418 1.755061,1.293286 1.002681,1.035957 1.075602,1.393826 1.187592,5.828221 0.109092,4.319633 -0.0313,21.200069 -0.181359,21.805704 -0.145272,0.586328 -0.557474,1.17733 -1.306525,1.873253 -0.760203,0.706284 -1.426169,1.127786 -2.283088,1.445007 -0.585368,0.216696 -0.724718,0.228158 -3.633521,0.298852 -3.247582,0.07893 -32.872745,0.07682 -37.065181,-0.0026 z M 20.75985,22.324887 c 0.07684,-6.158737 0.106693,-6.543069 0.587949,-7.570043 1.653261,-3.527965 5.265176,-5.8048338 9.667767,-6.0943372 2.946915,-0.1937819 5.197725,0.206955 7.415114,1.3201965 1.315013,0.6602037 2.880109,1.9849917 3.775382,3.1957057 0.517544,0.699894 1.131373,1.885573 1.268371,2.449996 0.09261,0.381559 0.260087,6.755804 0.268514,10.2199 l 0.0039,1.602696 h 2.76798 2.767979 l -0.05713,-4.17604 C 49.146683,17.499137 48.973977,15.009991 48.578828,13.950233 47.658472,11.481913 45.82644,9.1667802 43.430821,7.4447141 42.359601,6.6746786 40.276202,5.6348327 38.871036,5.1688786 36.062,4.2373998 32.923846,3.9611994 29.435442,4.3384177 25.8273,4.7285838 22.678,6.0671732 19.88665,8.3970696 18.029606,9.9471156 16.746948,11.790965 15.796844,14.276259 l -0.324097,0.84778 -0.03828,1.941294 c -0.02105,1.067712 -0.05648,3.840829 -0.07872,6.162481 l -0.04044,4.221187 h 2.690305 2.690307 z m 20.612068,-0.270879 c -0.03421,-3.701767 -0.08366,-5.536685 -0.157541,-5.846456 -0.526908,-2.209088 -2.603221,-4.282162 -5.16083,-5.15278 -1.304793,-0.444157 -1.985524,-0.536147 -3.909322,-0.528283 -1.640729,0.0067 -1.884992,0.02859 -2.671319,0.239327 -2.994435,0.802513 -4.846898,2.243991 -5.967242,4.643359 l -0.372788,0.798377 -0.03277,4.74037 c -0.01802,2.607204 -0.04381,5.13653 -0.0573,5.620725 l -0.02453,0.880354 h 9.201751 9.201752 z"
       id="path1550"
       transform="scale(0.26458)" />
    <path
       style="fill:#000000;stroke-width:0.0902928"
       d="m 23.701852,35.87788 c -0.07449,-0.0296 -0.267493,-0.178699 -0.428891,-0.331327 -0.676496,-0.639736 -0.167585,-1.229867 1.413881,-1.639534 0.682245,-0.176731 0.889761,-0.139779 1.315819,0.234305 0.40757,0.357852 0.422168,0.683599 0.04743,1.058341 -0.409814,0.409814 -1.923505,0.846997 -2.348235,0.678215 z"
       id="path1626"
       transform="scale(0.26458)" />
    <path
       style="fill:#000000;stroke-width:0.0902928"
       d="m 48.328981,40.505958 c -0.27983,-0.168505 -0.931362,-0.610745 -1.447847,-0.982755 -2.872455,-2.068949 -5.533226,-3.335686 -8.551854,-4.071357 -2.076564,-0.50608 -3.011304,-0.608651 -6.185055,-0.678698 -3.103345,-0.06849 -3.239792,-0.08722 -3.516787,-0.482686 -0.353716,-0.505 -0.04308,-1.067113 0.694484,-1.256719 0.74575,-0.19171 5.213438,-0.162289 6.6146,0.04356 3.076876,0.452031 5.918352,1.327924 8.540795,2.632725 2.552344,1.269923 5.142184,3.155599 5.491184,3.998159 0.149887,0.36186 -0.04385,0.75186 -0.47516,0.956531 -0.439116,0.208375 -0.588501,0.188006 -1.16436,-0.158758 z"
       id="path1665"
       transform="scale(0.26458)" />
    <path
       style="fill:#000000;stroke-width:0.0902928"
       d="m 19.61473,43.973121 c -0.273866,-0.215423 -0.428122,-0.609983 -0.33592,-0.859227 0.100135,-0.270692 0.880773,-0.994105 1.72042,-1.594304 1.98639,-1.419916 4.604382,-2.558575 7.352699,-3.197954 1.011173,-0.235243 1.245474,-0.254538 3.509372,-0.289009 1.424722,-0.02169 2.766199,0.0033 3.25054,0.06064 0.924515,0.109391 3.089165,0.619597 3.872971,0.912856 0.856819,0.320577 1.111551,0.884459 0.64827,1.435037 -0.360068,0.427916 -0.625722,0.426955 -2.297023,-0.0083 l -1.48983,-0.388007 h -3.340833 c -3.707158,0 -3.862467,0.01779 -5.688444,0.651459 -1.462684,0.507597 -2.79706,1.194472 -4.288906,2.207729 -0.769746,0.522809 -1.529574,1.01774 -1.688506,1.099847 -0.396967,0.205081 -0.942405,0.191384 -1.22481,-0.03076 z"
       id="path1704"
       transform="scale(0.26458)" />
    <path
       style="fill:#000000;stroke-width:0.0902928"
       d="m 14.973136,40.684226 c -0.593657,-0.265535 -0.613341,-0.889207 -0.04782,-1.51517 0.423646,-0.468925 1.425757,-1.23179 2.766172,-2.105768 2.014182,-1.313289 2.833958,-1.569599 3.387227,-1.059047 0.38932,0.359262 0.43133,0.653204 0.142425,0.996548 -0.129687,0.154124 -1.130509,0.881771 -2.224048,1.616993 -3.407892,2.291236 -3.460726,2.318368 -4.023956,2.066444 z"
       id="path1743"
       transform="scale(0.26458)" />
    <path
       style="fill:#000000;stroke-width:0.0902928"
       d="m 44.368266,44.118055 c -0.179659,-0.06379 -0.484397,-0.21104 -0.677195,-0.32722 -0.628274,-0.378593 -2.378575,-1.719634 -2.471808,-1.893842 -0.165543,-0.30932 -0.107066,-0.767125 0.125949,-0.986032 0.625447,-0.587576 1.723859,-0.176198 3.414318,1.278735 0.9396,0.80869 1.111509,1.365791 0.544651,1.765041 -0.364601,0.256796 -0.571142,0.292837 -0.935915,0.163318 z"
       id="path1819"
       transform="scale(0.26458)" />
    <path
       style="fill:#000000;stroke-width:0.0902928"
       d="m 24.649926,47.479165 c -0.354071,-0.195348 -0.677196,-0.564056 -0.677196,-0.772727 0,-0.325657 0.228307,-0.605392 0.937299,-1.148437 1.277702,-0.97864 3.104412,-1.849837 4.585278,-2.186816 0.839583,-0.191052 4.109691,-0.223072 5.131969,-0.05025 1.379229,0.233164 3.056357,0.910317 4.361233,1.760878 1.60953,1.049144 1.876632,1.687666 0.963719,2.303825 -0.427282,0.288389 -0.658771,0.226357 -1.76712,-0.473536 -2.410054,-1.521887 -3.528141,-1.866046 -6.057177,-1.864463 -1.485818,9.3e-4 -2.34433,0.165207 -3.617386,0.69219 -0.896819,0.371239 -1.372396,0.632395 -2.15641,1.18416 -0.877052,0.617241 -1.326396,0.763623 -1.704209,0.555176 z"
       id="path1858"
       transform="scale(0.26458)" />
    <path
       style="fill:#000000;stroke-width:0.0902928"
       d="m 30.925273,55.562762 c -0.460348,-0.09051 -1.698012,-0.771539 -2.175387,-1.197016 -0.603131,-0.537561 -0.945509,-1.144032 -1.065108,-1.886673 -0.256098,-1.590222 0.508723,-2.892251 2.187605,-3.724169 0.688087,-0.340961 0.894074,-0.399938 1.548662,-0.443403 0.415257,-0.02757 1.113536,-0.02792 1.551731,-7.57e-4 0.667384,0.04136 0.899198,0.100001 1.427999,0.36123 0.820571,0.405362 1.677201,1.237062 2.007617,1.949189 0.692497,1.492499 0.153907,3.181523 -1.330627,4.172856 -0.825258,0.551086 -1.544767,0.749535 -2.843247,0.784199 -0.595932,0.01591 -1.185093,0.009 -1.309245,-0.01546 z m 1.941376,-1.887527 c 0.938306,-0.244397 1.370956,-0.722283 1.463217,-1.616204 0.08853,-0.857765 -0.405073,-1.577988 -1.271995,-1.855992 -0.472153,-0.15141 -1.635001,-0.07725 -2.042305,0.130241 -0.739488,0.376718 -1.083682,0.886141 -1.083176,1.603151 6.05e-4,0.860338 0.61932,1.548709 1.599425,1.779497 0.509392,0.119948 0.745758,0.112742 1.334834,-0.04069 z"
       id="path1897"
       transform="scale(0.26458)" />
  </g>
</svg>
