<?xml version="1.0" encoding="UTF-8" standalone="no"?>
<!-- Created with Inkscape (http://www.inkscape.org/) -->

<svg
   width="16"
   height="16"
   viewBox="0 0 4.23328 4.23328"
   version="1.1"
   id="svg5"
   inkscape:version="1.1.2 (0a00cf5339, 2022-02-04)"
   sodipodi:docname="smartlock-black.svg"
   xmlns:inkscape="http://www.inkscape.org/namespaces/inkscape"
   xmlns:sodipodi="http://sodipodi.sourceforge.net/DTD/sodipodi-0.dtd"
   xmlns="http://www.w3.org/2000/svg"
   xmlns:svg="http://www.w3.org/2000/svg">
  <sodipodi:namedview
     id="namedview7"
     pagecolor="#505050"
     bordercolor="#eeeeee"
     borderopacity="1"
     inkscape:pageshadow="0"
     inkscape:pageopacity="0"
     inkscape:pagecheckerboard="true"
     inkscape:document-units="px"
     showgrid="false"
     inkscape:zoom="44.300336"
     inkscape:cx="14.277544"
     inkscape:cy="9.2888686"
     inkscape:window-width="2560"
     inkscape:window-height="1411"
     inkscape:window-x="0"
     inkscape:window-y="29"
     inkscape:window-maximized="1"
     inkscape:current-layer="layer1"
     units="px"
     height="640px"
     scale-x="0.26458"
     width="16px" />
  <defs
     id="defs2" />
  <g
     inkscape:label="Layer 1"
     inkscape:groupmode="layer"
     id="layer1">
    <g
       id="g31"
       transform="matrix(0.25266481,0,0,0.26610701,-3.9928768,0.04197635)">
      <path
         style="fill:#000000;stroke-width:0.0238897"
         d="m 19.164744,15.734378 -0.66891,-0.01268 -0.171219,-0.07449 c -0.25142,-0.109383 -0.478711,-0.270067 -0.679927,-0.480678 -0.315085,-0.329795 -0.319569,-0.368801 -0.316539,-2.753551 0.0026,-2.041209 0.01086,-2.249625 0.09248,-2.331243 0.113032,-0.1130327 0.376813,-0.095378 0.459456,0.03075 0.03668,0.05599 0.04272,0.181588 0.05707,1.187522 0.0088,0.618703 0.02405,1.648788 0.03382,2.289079 l 0.01777,1.164165 0.125186,0.137822 c 0.06885,0.0758 0.202162,0.183666 0.296242,0.239699 l 0.171056,0.101878 5.547481,-0.0063 5.547481,-0.0063 0.134287,-0.06595 c 0.162557,-0.07983 0.330827,-0.22411 0.430738,-0.369325 l 0.07402,-0.107589 0.01217,-3.323963 0.01217,-3.3239634 -0.111988,-0.1483129 C 30.099925,7.7118441 29.996688,7.6240485 29.784534,7.5041321 l -0.148765,-0.084087 -4.697996,8.995e-4 c -4.922706,9.525e-4 -6.171402,0.016862 -6.414273,0.081782 -0.229999,0.061481 -0.473912,0.3018236 -0.525808,0.518114 -0.0084,0.034802 -0.03085,0.2414706 -0.05,0.4592643 -0.01915,0.2177944 -0.04603,0.4169316 -0.05973,0.4425273 -0.04479,0.083684 -0.146984,0.1458032 -0.239873,0.1458032 -0.123299,0 -0.235008,-0.043291 -0.268472,-0.1040438 -0.03947,-0.071665 -0.05335,-0.6380039 -0.02145,-0.8750753 0.03532,-0.2624477 0.130153,-0.4392504 0.360443,-0.6719956 0.254779,-0.2574956 0.503091,-0.37474 1.028059,-0.4854146 L 18.99751,6.8790231 19.02402,5.5069242 C 19.0386,4.7522695 19.05813,4.0489098 19.06741,3.9439025 19.16239,2.8694836 19.920716,1.7571798 21.024528,1.0732356 21.598085,0.71784822 22.3896,0.42399591 23.070692,0.31359043 c 0.516284,-0.0836898 1.258292,-0.0973324 1.863394,-0.0342606 1.352704,0.1409969 2.693216,0.83407967 3.462157,1.79003377 0.421571,0.5241004 0.724198,1.176348 0.789456,1.7015007 0.02427,0.1952775 0.07085,1.9731133 0.07191,2.7440663 l 5.03e-4,0.3729845 0.185145,0.028641 c 0.280033,0.04332 0.520886,0.1139901 0.708692,0.2079406 0.207094,0.1035987 0.29896,0.1712939 0.464355,0.3421776 0.265289,0.2740935 0.284582,0.3687785 0.314213,1.5420307 0.02886,1.142888 -0.0083,5.609114 -0.04798,5.769353 -0.03844,0.155131 -0.147497,0.311498 -0.345681,0.495625 -0.201134,0.186869 -0.377336,0.29839 -0.604059,0.38232 -0.154877,0.05733 -0.191746,0.06037 -0.961357,0.07907 -0.859245,0.02088 -8.697471,0.02033 -9.806706,-6.88e-4 z M 21.097826,5.5387327 c 0.02033,-1.6294787 0.02823,-1.7311652 0.155559,-2.002882 0.43742,-0.933429 1.39306,-1.5358429 2.557898,-1.6124397 0.779695,-0.051271 1.375214,0.054756 1.961891,0.3492975 0.347926,0.1746767 0.762019,0.5251892 0.99889,0.8455199 0.136932,0.1851779 0.299339,0.4988849 0.335586,0.6482199 0.0245,0.1009529 0.06881,1.7874506 0.07104,2.7039811 l 0.001,0.4240414 h 0.732352 0.732352 L 28.629314,5.7895741 C 28.608414,4.2619357 28.562719,3.6033575 28.458171,3.3229667 28.214663,2.6698986 27.729944,2.0573608 27.096111,1.6017365 26.812688,1.3980005 26.261462,1.1228781 25.889683,0.99959597 25.146469,0.75314531 24.316176,0.68006821 23.393214,0.77987263 22.438572,0.88310277 21.60533,1.2372668 20.866794,1.8537107 c -0.491336,0.4101112 -0.830702,0.8979569 -1.08208,1.555516 l -0.08575,0.2243056 -0.01013,0.5136276 c -0.0056,0.2824952 -0.01494,1.0162065 -0.02083,1.6304692 l -0.0107,1.1168417 h 0.711801 0.711802 z m 5.453541,-0.071669 C 26.542315,4.48765 26.529232,4.0021674 26.509684,3.9202082 26.370275,3.3357277 25.820924,2.7872338 25.144232,2.5568856 24.79901,2.4393706 24.618902,2.4150319 24.109904,2.4171125 c -0.434104,0.00177 -0.498732,0.00756 -0.706778,0.063321 -0.792268,0.2123289 -1.282392,0.5937151 -1.578813,1.2285399 l -0.09863,0.2112346 -0.0087,1.2542071 c -0.0048,0.689814 -0.01159,1.3590231 -0.01516,1.4871314 l -0.0065,0.2329241 h 2.434599 2.4346 z"
         id="path1550" />
      <path
         style="fill:#000000;stroke-width:0.0238897"
         d="m 21.876221,9.1245836 c -0.01971,-0.00783 -0.07077,-0.04728 -0.113476,-0.087662 -0.178988,-0.1692614 -0.04434,-0.3253982 0.374084,-0.4337879 0.180509,-0.04676 0.235413,-0.036983 0.34814,0.061992 0.107834,0.094681 0.111697,0.1808666 0.01255,0.2800158 C 22.38909,9.0535701 21.988598,9.16924 21.876223,9.1245837 Z"
         id="path1626" />
      <path
         style="fill:#000000;stroke-width:0.0238897"
         d="M 28.392066,10.34908 C 28.318029,10.304497 28.145647,10.18749 28.008995,10.089063 27.249001,9.5416606 26.545014,9.2065073 25.746345,9.0118635 25.196928,8.8779648 24.949615,8.8508266 24.109904,8.8322936 23.288821,8.8141725 23.252719,8.8092169 23.179432,8.7045845 c -0.09359,-0.1336129 -0.0114,-0.2823368 0.183747,-0.3325027 0.19731,-0.050723 1.379371,-0.042938 1.750091,0.011525 0.814079,0.1195984 1.565877,0.3513421 2.259723,0.6965664 0.675299,0.3359962 1.360519,0.8349084 1.452858,1.0578328 0.03966,0.09574 -0.0116,0.198927 -0.125718,0.253079 -0.116182,0.05513 -0.155706,0.04974 -0.308067,-0.042 z"
         id="path1665" />
      <path
         style="fill:#000000;stroke-width:0.0238897"
         d="m 20.79485,11.266422 c -0.07246,-0.057 -0.113273,-0.161389 -0.08888,-0.227334 0.02649,-0.07162 0.233035,-0.26302 0.455189,-0.421821 0.525559,-0.375681 1.218227,-0.6769476 1.945377,-0.8461145 0.267536,-0.062241 0.329527,-0.067346 0.92851,-0.076466 0.376953,-0.00574 0.731881,8.731e-4 0.860027,0.016044 0.244609,0.028943 0.817332,0.1639329 1.024711,0.2415234 0.226697,0.084818 0.294094,0.2340101 0.171519,0.3796821 -0.09527,0.113218 -0.165553,0.112964 -0.607746,-0.0022 L 25.08938,10.227081 h -0.883918 c -0.98084,0 -1.021931,0.0047 -1.505048,0.172363 -0.386997,0.1343 -0.740046,0.316034 -1.134759,0.584121 -0.203659,0.138325 -0.404695,0.269274 -0.446745,0.290998 -0.105029,0.05426 -0.249341,0.05064 -0.32406,-0.0081 z"
         id="path1704" />
      <path
         style="fill:#000000;stroke-width:0.0238897"
         d="m 19.566777,10.396247 c -0.15707,-0.07026 -0.162278,-0.235267 -0.01265,-0.4008841 0.112088,-0.1240682 0.377226,-0.325907 0.731873,-0.5571441 0.532913,-0.34747 0.749809,-0.4152845 0.896193,-0.2802026 0.103006,0.095053 0.114121,0.1728247 0.03768,0.2636666 -0.03431,0.040778 -0.29911,0.233299 -0.588439,0.427824 -0.90166,0.6062152 -0.915639,0.6133942 -1.064658,0.5467402 z"
         id="path1743" />
      <path
         style="fill:#000000;stroke-width:0.0238897"
         d="m 27.34414,11.304769 c -0.04753,-0.01688 -0.128161,-0.05584 -0.179172,-0.08658 -0.166229,-0.100168 -0.629323,-0.454981 -0.653991,-0.501073 -0.0438,-0.08184 -0.02833,-0.202965 0.03332,-0.260884 0.165481,-0.155461 0.456098,-0.04662 0.90336,0.338328 0.248599,0.213963 0.294083,0.361361 0.144104,0.466994 -0.09647,0.06794 -0.151113,0.07748 -0.247625,0.04321 z"
         id="path1819" />
      <path
         style="fill:#000000;stroke-width:0.0238897"
         d="m 22.127062,12.194052 c -0.09368,-0.05169 -0.179173,-0.149238 -0.179173,-0.204449 0,-0.08616 0.06041,-0.160174 0.247991,-0.303853 0.338054,-0.258929 0.821365,-0.48943 1.213173,-0.578588 0.222137,-0.05055 1.087342,-0.05902 1.357816,-0.0133 0.364917,0.06169 0.808651,0.240852 1.153895,0.465893 0.42585,0.277583 0.49652,0.446523 0.254981,0.609546 -0.11305,0.0763 -0.174298,0.05989 -0.467545,-0.125288 -0.637652,-0.402661 -0.933475,-0.493718 -1.602607,-0.4933 -0.393118,2.46e-4 -0.620263,0.04371 -0.957088,0.18314 -0.237281,0.09822 -0.363109,0.167319 -0.570543,0.313305 -0.232051,0.16331 -0.350938,0.202039 -0.4509,0.146889 z"
         id="path1858" />
      <path
         style="fill:#000000;stroke-width:0.0238897"
         d="m 23.787393,14.33281 c -0.121799,-0.02395 -0.44926,-0.204134 -0.575564,-0.316707 -0.159576,-0.142228 -0.250162,-0.302688 -0.281806,-0.499176 -0.06776,-0.420741 0.134598,-0.765232 0.578797,-0.98534 0.182054,-0.09021 0.236554,-0.105816 0.409745,-0.117316 0.109868,-0.0073 0.294619,-0.0074 0.410557,-2e-4 0.176576,0.01094 0.237909,0.02646 0.37782,0.09557 0.217106,0.107251 0.443753,0.327302 0.531175,0.515716 0.183221,0.394886 0.04072,0.841768 -0.352057,1.104055 -0.218347,0.145806 -0.408715,0.198312 -0.752267,0.207483 -0.157671,0.0042 -0.313552,0.0024 -0.3464,-0.0041 z m 0.51365,-0.499402 c 0.248257,-0.06466 0.362727,-0.191102 0.387138,-0.427616 0.02342,-0.226947 -0.107175,-0.417504 -0.336545,-0.491058 -0.124922,-0.04006 -0.432588,-0.02044 -0.540353,0.03446 -0.195654,0.09967 -0.286721,0.234455 -0.286587,0.424162 1.6e-4,0.227628 0.16386,0.409757 0.423176,0.470819 0.134775,0.03174 0.197313,0.02983 0.353171,-0.01077 z"
         id="path1897" />
    </g>
  </g>
</svg>
